<svg version="1.1" id="Layer_1" xmlns="http://www.w3.org/2000/svg" xmlns:xlink="http://www.w3.org/1999/xlink" x="0px" y="0px"
	 width="100%" viewBox="0 0 1024 1024" enable-background="new 0 0 1024 1024" xml:space="preserve">
<path fill="#000000" opacity="1.000000" stroke="none" 
	d="
M146.011047,574.861206 
	C133.357346,543.729919 124.943848,511.910522 120.490410,478.951416 
	C117.022095,453.282990 115.970329,427.570007 117.793686,401.803986 
	C121.681297,346.867920 135.880020,294.712280 162.295242,246.255753 
	C199.429672,178.135834 251.995224,125.089287 319.867584,87.388390 
	C359.387634,65.436287 401.793488,51.638588 446.207001,43.931629 
	C475.309723,38.881508 504.758881,37.186630 534.188721,38.867928 
	C613.338379,43.389660 685.798889,67.792091 749.808044,115.036514 
	C803.560120,154.710251 845.508484,204.540344 873.846741,265.291626 
	C889.324768,298.473206 899.104370,333.395386 904.540894,369.645538 
	C908.682739,397.262665 909.582581,425.012787 908.060364,452.721954 
	C905.587708,497.731873 895.105469,541.071228 876.888184,582.385803 
	C843.733032,657.577637 791.588623,716.642334 723.016479,761.252930 
	C679.264587,789.716431 631.148315,807.647278 579.891235,817.342407 
	C551.140991,822.780396 522.110352,824.776672 493.001465,823.130615 
	C450.759308,820.741943 409.819580,811.703064 370.507599,795.805725 
	C334.176239,781.113708 300.304657,762.158081 269.544250,737.739807 
	C218.412827,697.150696 178.748047,647.569946 151.698334,588.045044 
	C149.771790,583.805542 148.012283,579.490173 146.011047,574.861206 
M622.162170,578.660828 
	C588.193542,613.260925 554.174866,647.812256 520.321472,682.524780 
	C516.215210,686.735229 512.138977,689.218811 505.978729,688.614136 
	C500.529907,688.079224 498.201355,690.422852 498.188385,695.289917 
	C498.135040,715.287048 498.135773,735.284790 498.247528,755.281616 
	C498.277161,760.582520 500.369598,762.245789 505.729370,762.173035 
	C512.559387,762.080444 519.392212,762.158264 526.220703,762.015564 
	C529.159241,761.954102 530.470886,762.998657 530.368835,766.065491 
	C530.219299,770.559814 530.499146,775.070007 530.306641,779.560974 
	C530.132568,783.623047 532.063416,784.952026 535.782471,784.594238 
	C543.222717,783.878479 550.700073,783.444214 558.101074,782.443237 
	C586.042969,778.663940 613.219299,771.782410 639.559570,761.695007 
	C702.553711,737.570496 754.351501,698.230713 796.248169,645.679810 
	C816.390137,620.415649 832.494934,592.712585 845.062683,562.874329 
	C859.846558,527.774231 868.691284,491.242462 871.444580,453.390350 
	C873.230225,428.841736 872.272705,404.252441 868.877258,379.734985 
	C863.885925,343.694519 853.904785,309.248901 838.205627,276.454895 
	C815.588074,229.209213 783.151184,189.801422 742.778320,156.657532 
	C685.343811,109.507011 619.167175,83.838089 545.636353,76.505211 
	C526.427185,74.589569 507.103271,74.881157 487.775757,76.138718 
	C462.452515,77.786400 437.689697,82.253075 413.323822,89.121605 
	C346.354340,107.999748 289.685455,143.469803 242.944229,194.953857 
	C191.291534,251.847717 162.446518,318.910339 154.559723,395.006165 
	C151.898926,420.678833 152.344604,446.566437 155.494644,472.246948 
	C159.031265,501.078735 166.494415,528.954346 177.543320,555.838806 
	C178.105438,557.206543 178.321655,559.054016 180.472839,559.722229 
	C182.297089,546.705505 181.443680,533.886536 181.649918,521.105408 
	C181.748230,515.012634 182.051376,514.645508 188.264572,514.635315 
	C203.263153,514.610840 218.261871,514.662598 233.260437,514.636353 
	C239.824051,514.624878 241.612000,512.841675 241.643997,506.413300 
	C241.714523,492.248199 241.669373,478.081879 241.840195,463.918091 
	C241.974457,452.787964 239.838196,453.860718 252.446365,453.698608 
	C256.358093,453.648315 257.549194,455.474884 256.992432,458.938904 
	C256.003540,465.091492 256.607819,471.200592 257.002289,477.361481 
	C257.310638,482.178009 259.600677,483.701630 264.008057,483.664093 
	C274.506317,483.574677 285.009796,483.483337 295.503143,483.730865 
	C299.578705,483.827026 302.394501,482.352631 305.042603,479.439087 
	C311.652161,472.167236 318.487579,465.100952 325.213257,457.934265 
	C343.682861,438.253754 362.147247,418.568359 380.604645,398.876404 
	C393.707001,384.897705 406.727173,370.841125 419.917938,356.946472 
	C426.370972,350.149078 435.725250,349.586121 441.762054,355.381958 
	C463.154968,375.920898 484.536224,396.472046 505.875885,417.066315 
	C513.803284,424.716827 517.453857,424.527191 524.486328,415.919495 
	C545.236084,390.521851 566.033203,365.162842 586.762451,339.748535 
	C600.547729,322.847626 614.160522,305.805115 628.054016,288.994202 
	C631.201965,285.185242 630.342224,283.065857 626.578613,280.750275 
	C613.814758,272.897339 601.129517,264.916626 588.409973,256.991638 
	C585.757141,255.338867 583.424194,253.391235 583.810791,249.894516 
	C584.193848,246.430191 586.762146,244.974075 589.786438,243.965988 
	C636.024475,228.553543 682.081360,212.616089 728.004395,196.289047 
	C736.970886,193.101181 740.299927,195.612640 740.304565,205.307312 
	C740.326782,251.470001 740.330688,297.632690 740.321899,343.795380 
	C740.321350,346.565308 740.945251,349.627869 737.655579,351.236511 
	C734.555908,352.752197 732.246948,350.958069 729.880005,349.362823 
	C719.388672,342.291931 708.833679,335.313477 698.427063,328.120209 
	C695.308167,325.964386 693.219299,326.172791 690.934021,329.249146 
	C687.957764,333.255524 684.560486,336.945862 681.450439,340.856537 
	C631.689758,403.426178 581.457214,465.614838 530.825745,527.481567 
	C523.730591,536.151184 512.272827,537.412598 503.498657,530.320129 
	C493.656830,522.364563 483.952972,514.238464 474.131500,506.257446 
	C468.832825,501.951691 463.531921,497.630859 458.005646,493.629517 
	C454.579773,491.148926 450.783020,489.967468 447.322327,493.968750 
	C443.117462,498.830475 447.935425,501.281616 450.319885,503.828674 
	C461.476807,515.746338 472.940613,527.376099 484.236450,539.164612 
	C498.069305,553.600830 511.819763,568.115967 525.657349,582.547546 
	C530.438965,587.534363 533.646973,587.733337 539.146912,583.587219 
	C540.604614,582.488342 541.972412,581.247620 543.264160,579.954773 
	C557.986145,565.220886 572.637207,550.415833 587.400391,535.723450 
	C621.296387,501.989899 655.248962,468.313110 689.165771,434.600433 
	C694.342773,429.454559 694.335999,429.223755 689.054749,423.969208 
	C686.338867,421.267029 683.479553,418.709320 680.744629,416.025635 
	C679.430359,414.735931 678.104004,413.318481 678.681763,411.235657 
	C679.287109,409.053223 681.200439,408.916443 683.042358,408.601929 
	C687.456848,407.848236 691.874451,407.089600 696.254272,406.160797 
	C717.038879,401.753265 737.805847,397.262878 758.590515,392.855560 
	C767.110596,391.048920 769.659058,393.705200 767.953003,402.335358 
	C767.020447,407.052856 766.206543,411.793732 765.328308,416.522064 
	C761.505371,437.103729 757.296448,457.599060 751.009705,477.598419 
	C748.939758,484.183075 746.579590,484.688873 741.620056,480.037659 
	C737.632080,476.297516 734.181458,471.967102 728.963013,468.354370 
	C693.506836,504.980011 658.084656,541.570557 622.162170,578.660828 
M267.594757,606.923828 
	C270.375793,596.582031 267.908234,587.579407 259.605072,580.923218 
	C251.517944,574.440186 242.256393,573.438049 232.955002,578.421387 
	C224.025208,583.205688 220.039169,591.118530 220.405853,601.102783 
	C220.803619,611.933350 229.208206,621.814758 239.168976,623.584656 
	C252.103653,625.882996 261.869812,620.385681 267.594757,606.923828 
M268.349060,519.653931 
	C268.344055,527.796082 268.445374,535.940308 268.290253,544.079590 
	C268.210022,548.288391 270.315094,550.448486 274.162811,550.543335 
	C282.631592,550.752197 291.116394,550.808655 299.580658,550.518555 
	C304.597107,550.346619 306.601257,547.851257 306.634003,542.793396 
	C306.689941,534.153198 306.747589,525.510498 306.604126,516.872192 
	C306.510986,511.262390 304.559082,509.439331 299.007965,509.383453 
	C291.863434,509.311493 284.717804,509.346313 277.572632,509.347137 
	C268.819092,509.348175 268.371552,509.807953 268.349060,519.653931 
M390.349701,689.577087 
	C390.350861,708.396851 390.428406,727.217163 390.289032,746.035889 
	C390.261017,749.819824 391.443726,751.608215 395.358063,751.574036 
	C402.122345,751.514954 403.555542,750.678101 403.631104,745.902954 
	C403.725983,739.908691 403.678253,733.912109 403.678467,727.916504 
	C403.679016,713.427002 403.682953,698.937500 403.655182,684.447998 
	C403.651123,682.331604 404.018372,680.101624 400.929230,679.417053 
	C392.835449,677.623535 390.336761,679.484558 390.349945,687.607544 
	C390.350494,687.940613 390.349976,688.273743 390.349701,689.577087 
M352.552307,649.335754 
	C347.566895,648.660889 345.406433,650.776978 345.990112,655.813721 
	C346.180084,657.453064 345.888245,659.145325 346.041870,660.792358 
	C346.363831,664.243774 344.920715,665.514587 341.460907,665.425598 
	C334.653351,665.250427 327.836487,665.311646 321.025848,665.422241 
	C315.482910,665.512207 316.771576,669.940430 316.528229,673.137756 
	C316.306122,676.056274 316.503845,678.820129 320.801514,678.770630 
	C332.264343,678.638611 343.730591,678.672546 355.193909,678.790161 
	C358.753662,678.826721 359.775848,677.208923 359.691040,673.912598 
	C359.532959,667.768921 359.394745,661.604919 359.722839,655.474854 
	C359.981354,650.644958 358.178314,648.665527 352.552307,649.335754 
M341.148651,610.338928 
	C340.555389,615.070618 342.547302,616.888794 347.371277,616.729736 
	C356.004700,616.445007 364.655945,616.516846 373.295258,616.679138 
	C377.187042,616.752258 378.816895,615.134888 378.645538,611.369690 
	C378.585144,610.043091 378.500427,608.691833 378.674347,607.384827 
	C379.334015,602.427490 377.038055,600.763855 372.366333,601.369507 
	C364.927032,602.333984 357.455872,602.435913 349.988403,601.758789 
	C341.349701,600.975464 341.353638,600.932007 341.148651,610.338928 
M297.370392,578.001099 
	C297.363861,580.317505 297.475616,582.641785 297.322784,584.948547 
	C297.101257,588.291748 298.374603,589.621704 301.871033,589.714478 
	C313.065155,590.011169 313.117889,589.973877 312.721649,578.768372 
	C312.607697,575.546082 311.390808,574.252136 308.270508,574.373718 
	C305.957916,574.463867 303.638489,574.379395 301.322083,574.369019 
	C299.356049,574.360168 297.635040,574.691711 297.370392,578.001099 
M281.651825,663.589355 
	C281.606750,656.420288 281.606750,656.420166 274.558502,656.412659 
	C273.726349,656.411804 272.891113,656.366638 272.062622,656.421570 
	C269.953613,656.561401 267.047363,656.113770 266.717072,658.846069 
	C266.232544,662.853760 264.461578,668.065125 267.653351,670.699036 
	C270.799896,673.295776 276.100677,672.376709 280.150299,671.224670 
	C283.005249,670.412476 281.204041,666.819275 281.651825,663.589355 
M359.653931,724.266724 
	C359.484619,712.395508 361.179901,713.369934 351.565430,713.071594 
	C347.061676,712.931885 345.560150,714.702820 346.111908,718.973083 
	C346.365692,720.937500 346.319000,722.970642 346.158386,724.952332 
	C345.851227,728.742493 346.799713,730.810242 351.278381,730.740906 
	C359.203369,730.618225 359.260956,730.820312 359.653931,724.266724 
M397.743866,460.895752 
	C408.695251,460.711853 407.361206,461.617767 407.747375,451.439178 
	C407.934662,446.504028 406.103271,445.182343 401.453918,445.270386 
	C392.285522,445.444031 392.281525,445.229889 392.382324,454.502655 
	C392.389526,455.166016 392.439362,455.832458 392.393921,456.492249 
	C392.172974,459.702393 393.738953,461.080719 397.743866,460.895752 
M370.948059,463.404510 
	C368.618042,463.406769 366.287018,463.368530 363.958282,463.424103 
	C362.125458,463.467834 359.835297,463.398315 359.600952,465.752380 
	C359.209045,469.689148 358.205872,474.053955 360.088104,477.504486 
	C361.500244,480.093323 365.330536,478.542084 368.053558,478.566376 
	C370.296875,478.586426 373.284912,479.885559 374.486938,476.484955 
	C375.872589,472.565002 374.320862,465.254944 370.948059,463.404510 
M312.642761,626.032166 
	C312.633911,623.552856 312.628082,621.073608 312.615234,618.594299 
	C312.604858,616.590576 311.546692,615.747681 309.597107,615.409668 
	C299.000397,613.572327 297.054108,615.294983 297.275635,625.765503 
	C297.349518,629.257446 298.859650,630.542297 302.008514,630.598877 
	C304.156769,630.637512 306.307587,630.575928 308.454376,630.646423 
	C311.084137,630.732788 312.504761,629.568359 312.642761,626.032166 
M211.701218,552.647827 
	C222.468765,552.672424 222.678085,552.447693 221.614563,542.023926 
	C221.581070,541.695740 221.584061,541.363892 221.553528,541.035339 
	C221.411850,539.509216 220.548187,538.789856 219.063522,538.423584 
	C209.192719,535.988586 205.832687,538.727600 206.200531,548.560852 
	C206.327271,551.948853 207.807892,552.931274 211.701218,552.647827 
M328.352814,503.809601 
	C328.350586,505.464691 328.520386,507.141693 328.313232,508.770721 
	C327.737762,513.295532 329.508514,514.870667 334.132660,514.836060 
	C338.555115,514.802917 340.172150,513.264526 339.685883,508.997528 
	C339.481018,507.200012 339.606720,505.359070 339.655518,503.539825 
	C339.719299,501.161713 339.335388,498.840576 336.327209,499.316010 
	C333.441162,499.772156 328.779785,496.895813 328.352814,503.809601 
M408.751495,508.501923 
	C398.469910,507.660431 396.896393,508.823181 398.483337,516.323730 
	C399.226959,519.838318 401.601135,521.678467 405.200287,521.664062 
	C407.217285,521.656067 410.119873,522.458740 410.387421,519.421997 
	C410.694885,515.932129 411.694824,512.217896 408.751495,508.501923 
M345.625275,564.983887 
	C338.978577,564.446411 340.446564,569.265991 340.361084,573.012207 
	C340.319855,574.819214 340.117126,577.134521 342.515167,577.359192 
	C345.684967,577.656067 349.676880,579.159668 351.846497,576.263062 
	C353.776031,573.686951 353.182922,569.774048 352.209381,566.678833 
	C351.425354,564.186218 348.542358,565.215210 345.625275,564.983887 
M313.641785,705.771851 
	C308.940430,703.677307 305.449554,704.381775 303.839813,707.749878 
	C301.988770,711.622925 303.639130,715.681763 307.610199,717.661255 
	C310.828644,719.265625 313.231812,717.761230 314.991119,715.564575 
	C317.485138,712.450623 317.128052,709.129517 313.641785,705.771851 
M478.190735,733.290344 
	C476.710907,730.174683 474.469696,728.265076 470.809326,728.937317 
	C467.588318,729.528870 466.155273,731.984070 465.572418,734.839539 
	C464.925781,738.007324 466.702484,740.248230 469.277008,741.748657 
	C473.646088,744.294800 478.054932,740.515076 478.190735,733.290344 
M406.822113,579.261353 
	C408.786285,577.120544 409.543793,574.765381 408.107056,572.021179 
	C406.310822,568.590210 401.948334,567.170593 398.787994,568.988098 
	C395.563812,570.842346 394.582062,575.058655 396.575134,578.491760 
	C398.672943,582.105408 401.535736,582.487366 406.822113,579.261353 
M466.265350,694.826965 
	C464.602966,698.738892 465.104675,702.267700 469.111511,704.152893 
	C472.756470,705.867920 475.497772,703.676697 477.557648,700.736694 
	C479.844971,697.472046 478.048859,694.925598 475.638794,692.949707 
	C472.379608,690.277588 469.202515,690.746521 466.265350,694.826965 
M440.367065,556.925964 
	C444.571198,557.125854 448.469147,554.429810 448.425812,550.929626 
	C448.380066,547.233582 446.317535,544.408203 442.632263,543.878418 
	C438.794861,543.326660 436.404877,545.768250 435.583984,549.400635 
	C434.786072,552.931519 437.183594,554.876038 440.367065,556.925964 
M408.664062,641.421387 
	C411.706879,639.650513 414.306885,637.444458 412.875000,633.515381 
	C411.564178,629.918335 408.618561,628.350586 404.869110,629.365723 
	C401.506775,630.276001 400.048340,633.005920 400.476593,636.281982 
	C401.022675,640.459473 403.712402,642.255066 408.664062,641.421387 
M437.292389,582.808350 
	C434.575684,587.415894 434.945679,590.486694 438.475525,592.628662 
	C441.726898,594.601685 445.063385,593.538452 447.360291,589.944519 
	C449.131256,587.173523 448.204895,584.906982 446.292816,582.749756 
	C443.625244,579.740173 440.762360,580.380127 437.292389,582.808350 
M465.966125,771.395020 
	C464.689667,775.490784 466.341614,778.271790 470.171722,779.526062 
	C473.577393,780.641418 476.053040,778.766113 477.292358,775.740723 
	C478.574188,772.611450 477.595917,769.570007 474.628601,768.057983 
	C471.322205,766.373108 468.179779,767.082764 465.966125,771.395020 
M446.375824,619.175598 
	C443.651978,616.694031 440.616302,616.536316 437.770905,618.631470 
	C435.833588,620.057983 434.882812,622.258606 435.806885,624.817932 
	C437.028839,628.202454 439.301849,630.164246 443.014771,629.390259 
	C446.873596,628.585999 448.286255,624.782349 446.375824,619.175598 
M376.359741,524.108337 
	C375.240021,523.862183 374.126587,523.444885 372.999329,523.403503 
	C370.160645,523.299133 368.025818,524.609863 367.537964,527.448547 
	C367.061310,530.222107 366.794800,533.208984 369.964722,534.916016 
	C372.750977,536.416382 375.400330,535.632324 377.223999,533.535828 
	C379.691193,530.699646 379.315460,527.475098 376.359741,524.108337 
M477.929871,620.406372 
	C476.793732,619.608765 475.493317,619.497192 474.152954,619.354736 
	C469.980133,618.911316 468.166412,620.364441 468.204620,624.894470 
	C468.239960,629.085144 469.245697,631.045715 473.810547,630.704224 
	C479.471741,630.280701 480.913147,627.539734 477.929871,620.406372 
M444.591370,706.816650 
	C439.960022,704.388916 436.887054,704.894714 435.487885,708.353088 
	C434.200623,711.534790 435.115417,714.178284 437.690430,716.259033 
	C439.907349,718.050293 442.155518,718.080200 444.378784,716.117310 
	C447.448425,713.407043 447.321777,710.485352 444.591370,706.816650 
M502.037476,666.238953 
	C507.951904,665.753235 511.054840,662.084778 508.991211,657.911621 
	C507.821960,655.547058 505.998657,653.985718 503.118896,654.193909 
	C500.234192,654.402405 498.621155,656.214233 497.854004,658.730652 
	C496.820435,662.120850 498.410553,664.427856 502.037476,666.238953 
M435.477631,676.431702 
	C436.308502,679.987793 438.476654,681.994873 442.198181,681.691956 
	C445.043701,681.460327 446.837921,679.364868 447.208099,676.842102 
	C447.652527,673.813599 446.016785,671.186523 443.076385,670.201050 
	C438.268524,668.589722 436.699799,672.020020 435.477631,676.431702 
M467.392212,659.603577 
	C467.507294,662.923767 468.638763,665.525024 472.382294,665.839539 
	C475.843750,666.130310 478.275848,664.323364 479.064972,661.108765 
	C479.844910,657.931641 477.919067,655.533752 475.054443,654.616211 
	C471.330627,653.423584 468.599976,654.967163 467.392212,659.603577 
M443.710266,742.791199 
	C437.690308,742.232483 433.918671,745.819641 435.759552,750.412659 
	C436.683197,752.717041 438.486633,754.259766 440.946442,754.454834 
	C443.316345,754.642822 445.116821,753.104065 445.987579,751.090942 
	C447.229126,748.220703 447.285187,745.303589 443.710266,742.791199 
M507.659210,629.276001 
	C511.605560,625.521301 509.268036,620.186768 505.417603,619.409241 
	C502.737549,618.868103 500.376709,619.447021 498.993561,621.986084 
	C497.706329,624.348999 497.628632,626.915588 499.483459,628.971558 
	C501.651215,631.374268 504.343414,631.576294 507.659210,629.276001 
z"/>
<path fill="#000000" opacity="1.000000" stroke="none" 
	d="
M193.773666,348.999451 
	C193.802139,340.009369 193.927856,331.517914 193.807220,323.029938 
	C193.761566,319.819244 194.907501,318.608429 198.143463,318.620178 
	C219.618240,318.698120 241.093567,318.689423 262.568390,318.613098 
	C265.901184,318.601257 267.384277,319.741058 267.370636,323.245972 
	C267.287689,344.554291 267.296448,365.863190 267.371979,387.171570 
	C267.384857,390.806213 265.792633,392.311066 262.279755,392.295410 
	C240.806122,392.199615 219.332291,392.100311 197.858566,392.107574 
	C194.054962,392.108887 193.611710,389.990723 193.637405,386.955750 
	C193.743210,374.470825 193.737534,361.984985 193.773666,348.999451 
M241.145859,373.633423 
	C244.197601,373.615997 247.472778,373.894592 247.652298,369.458923 
	C248.002350,360.809082 248.280197,352.156189 248.650391,343.507233 
	C248.778992,340.502808 247.434662,339.339935 244.480606,339.359772 
	C235.485764,339.420288 226.489029,339.413940 217.495163,339.285126 
	C214.513046,339.242432 213.296494,340.345947 213.331177,343.369202 
	C213.430557,352.030273 213.456512,360.695038 213.305405,369.354736 
	C213.247940,372.647156 214.540146,373.752808 217.730682,373.691315 
	C225.224182,373.546936 232.722229,373.638397 241.145859,373.633423 
z"/>
<path fill="#000000" opacity="1.000000" stroke="none" 
	d="
M289.016296,188.662506 
	C303.328491,189.248749 317.088593,187.683243 330.890686,187.568130 
	C335.543427,187.529343 337.346283,188.759552 337.290314,193.699188 
	C337.086670,211.660767 337.136963,229.629074 337.419037,247.589691 
	C337.492462,252.265381 335.918640,253.548950 331.419434,253.460266 
	C314.795685,253.132584 298.162079,253.251328 281.560181,254.249878 
	C276.884491,254.531097 275.617340,252.847290 275.588440,248.326340 
	C275.472565,230.205765 276.258759,212.076035 275.164246,193.962311 
	C274.963470,190.639526 276.228699,188.507080 280.036682,188.665100 
	C282.859161,188.782242 285.691132,188.671936 289.016296,188.662506 
M294.527588,230.770126 
	C294.860138,231.810364 295.529694,232.568497 296.643311,232.575912 
	C302.795593,232.616913 308.949036,232.659485 315.100342,232.574753 
	C317.692993,232.539032 317.723175,230.504288 317.716827,228.609268 
	C317.699585,223.452744 317.597137,218.295288 317.669250,213.140167 
	C317.706757,210.457489 316.767853,209.131058 313.910461,209.208145 
	C308.756744,209.347137 303.597382,209.385941 298.442230,209.319855 
	C295.513458,209.282303 294.210785,210.400345 294.299957,213.444336 
	C294.460602,218.929352 294.390137,224.421127 294.527588,230.770126 
z"/>
<path fill="#000000" opacity="1.000000" stroke="none" 
	d="
M413.157440,290.469818 
	C415.244080,310.353607 401.584930,326.371185 385.518951,329.867767 
	C365.694000,334.182495 345.384155,318.293915 344.547852,298.014862 
	C343.653687,276.332245 357.719971,262.612091 372.264465,260.553223 
	C393.387329,257.563171 410.012878,270.394958 413.157440,290.469818 
M390.750305,287.923096 
	C386.236206,281.733215 380.969543,279.716431 374.380310,281.654327 
	C369.108276,283.204834 364.802765,288.313690 364.372101,293.530029 
	C363.834412,300.042786 366.846893,305.316284 372.671265,308.058044 
	C377.767792,310.457184 383.911194,309.444885 388.349182,305.474670 
	C392.883179,301.418579 393.874390,295.421539 390.750305,287.923096 
z"/>
<path fill="#000000" opacity="1.000000" stroke="none" 
	d="
M181.650604,439.945557 
	C181.654572,432.793030 181.775314,426.129181 181.615189,419.472076 
	C181.531830,416.005676 182.912445,414.733032 186.319382,414.785797 
	C193.644073,414.899231 200.973862,414.672394 208.299042,414.771790 
	C214.231247,414.852234 215.307098,416.023224 215.338104,421.825775 
	C215.374588,428.653168 215.154114,435.488251 215.414261,442.305939 
	C215.584686,446.772125 214.165588,448.666229 209.443588,448.437958 
	C202.798233,448.116730 196.125412,448.370483 189.464340,448.365692 
	C181.679321,448.360107 181.679321,448.354218 181.650604,439.945557 
z"/>
<path fill="#000000" opacity="1.000000" stroke="none" 
	d="
M295.962280,344.754211 
	C295.717407,334.441498 295.716949,334.516632 305.304871,334.573212 
	C309.460846,334.597748 313.622528,334.295685 317.775269,334.038910 
	C320.906891,333.845276 322.406097,334.992889 322.262604,338.333923 
	C321.991089,344.653595 322.206451,350.981232 321.513489,357.301666 
	C321.196777,360.190338 320.316589,361.450165 317.289948,361.362671 
	C311.795837,361.203918 306.292389,361.253754 300.795410,361.355835 
	C297.811462,361.411255 296.650330,360.141510 296.625183,357.178345 
	C296.591339,353.191437 296.218262,349.207367 295.962280,344.754211 
z"/>
<path fill="#000000" opacity="1.000000" stroke="none" 
	d="
M364.696777,176.914719 
	C364.690094,176.264267 364.673401,176.096817 364.690033,175.932755 
	C365.118195,171.711853 362.638641,165.223053 365.794434,163.712784 
	C371.367706,161.045578 378.349030,161.499771 384.812836,161.909836 
	C386.608704,162.023788 387.232483,163.524155 387.245514,165.142456 
	C387.293549,171.112793 387.281494,177.083618 387.294159,183.054260 
	C387.299011,185.337448 386.090027,186.342056 383.883636,186.341263 
	C378.907867,186.339493 373.931244,186.299988 368.956635,186.379150 
	C366.460571,186.418884 365.291748,185.134720 365.039276,182.856628 
	C364.838745,181.047302 364.808289,179.219116 364.696777,176.914719 
z"/>
<path fill="#000000" opacity="1.000000" stroke="none" 
	d="
M227.789932,278.669556 
	C230.927460,278.611511 232.278549,279.905731 232.271393,282.571686 
	C232.258484,287.379974 232.198532,292.188385 232.220825,296.996429 
	C232.233337,299.692444 230.965424,300.898163 228.287506,300.930267 
	C223.480240,300.987793 218.671890,301.097992 213.868698,301.298920 
	C210.948273,301.421112 209.589310,300.258820 209.656433,297.250763 
	C209.763672,292.444336 209.773712,287.633087 209.692596,282.826111 
	C209.642578,279.861176 210.970322,278.609314 213.883224,278.652985 
	C218.359177,278.720123 222.836960,278.664398 227.789932,278.669556 
z"/>
<path fill="#000000" opacity="1.000000" stroke="none" 
	d="
M360.023071,380.244354 
	C352.103638,378.408417 348.974365,375.280701 348.672974,369.306976 
	C348.335785,362.623749 350.969421,358.006500 356.222443,356.071442 
	C362.634247,353.709564 369.647430,356.835114 371.783783,363.006653 
	C374.132751,369.792542 370.787628,377.146057 364.305634,379.334961 
	C363.054962,379.757324 361.726532,379.949493 360.023071,380.244354 
z"/>
<path fill="#000000" opacity="1.000000" stroke="none" 
	d="
M259.414856,299.736664 
	C256.306580,293.368042 257.974121,286.901459 257.947174,280.552124 
	C257.938721,278.563507 260.008850,278.715302 261.462982,278.694336 
	C265.621796,278.634338 269.815979,278.991364 273.932343,278.565948 
	C278.486298,278.095337 279.600220,280.382233 280.021271,284.217468 
	C281.586243,298.472321 281.311340,298.912506 267.318970,299.918732 
	C264.841888,300.096893 262.338928,299.915070 259.414856,299.736664 
z"/>
<path fill="#000000" opacity="1.000000" stroke="none" 
	d="
M388.241852,221.056076 
	C387.986755,225.340179 388.894165,229.796600 387.194885,232.756485 
	C385.140533,236.334778 380.158325,233.682724 376.551208,234.503616 
	C375.262268,234.796936 373.930939,234.902588 372.620087,235.101364 
	C369.367096,235.594604 367.634155,234.544647 367.583069,230.910751 
	C367.527374,226.947861 367.068970,222.985626 366.677612,219.033859 
	C366.306549,215.287109 367.618195,213.443375 371.661896,213.714325 
	C374.961914,213.935486 378.291718,213.699158 381.608368,213.688248 
	C388.240387,213.666412 388.240417,213.672821 388.241852,221.056076 
z"/>
<path fill="#000000" opacity="1.000000" stroke="none" 
	d="
M301.531708,283.481415 
	C301.080139,279.655823 302.510254,278.344543 306.012573,278.582977 
	C309.982086,278.853210 313.982697,278.727081 317.968536,278.675873 
	C320.902252,278.638214 322.267456,280.003174 322.173828,282.904846 
	C322.157776,283.402344 322.185242,283.901306 322.194427,284.399567 
	C322.476990,299.723022 320.934601,301.129059 305.505737,300.219574 
	C302.766663,300.058105 301.617065,299.042389 301.647003,296.324982 
	C301.692719,292.173737 301.578400,288.020721 301.531708,283.481415 
z"/>
<path fill="#000000" opacity="1.000000" stroke="none" 
	d="
M432.060059,233.154877 
	C426.348785,233.301727 421.040039,233.245026 415.736511,233.385071 
	C412.739838,233.464203 411.771820,232.186264 411.610352,229.256836 
	C410.819366,214.905975 410.761475,215.179367 425.098816,214.509842 
	C434.041260,214.092239 434.806519,212.621841 433.746216,224.394989 
	C433.489105,227.249710 434.332642,230.384399 432.060059,233.154877 
z"/>
<path fill="#000000" opacity="1.000000" stroke="none" 
	d="
M234.649933,242.857910 
	C234.182083,238.646240 235.959427,237.343674 239.548157,237.597946 
	C242.355621,237.796890 245.211029,237.870728 248.004089,237.590698 
	C252.061874,237.183868 253.903992,238.888046 253.823608,242.838516 
	C253.749527,246.478210 253.578293,250.115799 253.484299,253.755203 
	C253.424316,256.077240 251.865143,256.346680 250.071228,256.347687 
	C246.254089,256.349854 242.429855,256.211090 238.621887,256.399689 
	C235.165909,256.570892 233.670929,255.089172 233.916321,251.735718 
	C234.121735,248.928391 234.399689,246.126389 234.649933,242.857910 
z"/>
<path fill="#000000" opacity="1.000000" stroke="none" 
	d="
M274.676849,466.839386 
	C274.666046,466.028992 274.661652,465.698212 274.660828,465.367462 
	C274.629272,452.681580 274.973267,452.412659 287.639893,453.711639 
	C289.999939,453.953674 291.404053,454.728912 291.315186,457.290283 
	C291.286530,458.115570 291.338196,458.943512 291.346130,459.770264 
	C291.468506,472.503571 291.272522,472.617432 278.421906,471.375488 
	C275.674622,471.109955 274.562073,469.934265 274.676849,466.839386 
z"/>
<path fill="#000000" opacity="1.000000" stroke="none" 
	d="
M290.268250,422.811646 
	C290.532776,426.658813 288.957825,428.006805 285.600464,428.113525 
	C272.026733,428.545166 275.184906,428.858215 274.571564,418.065765 
	C274.290924,413.127350 275.724304,411.303406 280.915283,411.539581 
	C291.594727,412.025391 290.219757,410.013458 290.268250,422.811646 
z"/>
<path fill="#000000" opacity="1.000000" stroke="none" 
	d="
M306.757812,415.203186 
	C306.814697,412.638855 308.043671,412.006592 309.959625,411.741150 
	C321.320862,410.167419 322.276550,411.131104 322.438782,422.528381 
	C322.502563,427.007904 321.228882,429.071869 316.564941,428.412842 
	C315.099243,428.205719 313.573669,428.240234 312.091980,428.362946 
	C308.247528,428.681305 306.565613,426.907562 306.679047,423.141327 
	C306.753967,420.654755 306.721497,418.165009 306.757812,415.203186 
z"/>
<path fill="#000000" opacity="1.000000" stroke="none" 
	d="
M248.023087,411.680664 
	C256.355499,411.773773 256.358978,411.773773 256.332581,419.789429 
	C256.326569,421.614075 256.298187,423.438782 256.260193,425.263092 
	C256.224304,426.987732 255.490891,428.164337 253.624619,428.195099 
	C250.640991,428.244232 247.655136,428.255310 244.672073,428.192871 
	C243.476013,428.167847 242.181656,427.782623 241.990570,426.429657 
	C241.386032,422.149384 241.187897,417.777649 242.027649,413.569550 
	C242.599823,410.702332 245.574875,412.015381 248.023087,411.680664 
z"/>
<path fill="#000000" opacity="1.000000" stroke="none" 
	d="
M584.234253,739.611084 
	C581.005859,747.448792 573.359680,745.698914 571.004517,741.359985 
	C569.508057,738.603027 569.556519,736.010010 571.366150,733.476013 
	C573.506042,730.479553 576.617554,730.171082 579.798340,730.913330 
	C582.681030,731.585938 584.092712,733.794067 584.298706,736.723022 
	C584.356445,737.542786 584.293579,738.371094 584.234253,739.611084 
z"/>
<path fill="#000000" opacity="1.000000" stroke="none" 
	d="
M592.464233,704.796997 
	C589.867798,701.468384 588.920776,698.232849 591.759583,695.086182 
	C594.087708,692.505615 597.127441,691.900024 600.353210,693.337952 
	C603.875000,694.907837 605.367798,698.999207 603.857544,702.565796 
	C602.236023,706.395142 598.023376,707.344727 592.464233,704.796997 
z"/>
<path fill="#000000" opacity="1.000000" stroke="none" 
	d="
M535.358521,691.923523 
	C539.787354,691.423828 542.523987,693.037903 543.687195,697.002808 
	C544.640991,700.254089 543.687378,702.954895 540.955688,704.863342 
	C537.716064,707.126770 533.762939,706.407654 531.720032,703.371643 
	C529.242554,699.689758 530.644592,694.783142 535.358521,691.923523 
z"/>
<path fill="#000000" opacity="1.000000" stroke="none" 
	d="
M571.715210,694.097595 
	C575.090698,699.147461 574.854126,702.752380 571.170349,705.083496 
	C568.411682,706.829163 565.496033,706.969421 562.859619,704.836670 
	C560.405884,702.851746 559.820862,700.114563 560.785217,697.210693 
	C561.852356,693.997437 564.289917,692.589233 567.666748,692.677124 
	C569.045837,692.713013 570.253357,693.126160 571.715210,694.097595 
z"/>
<path fill="#000000" opacity="1.000000" stroke="none" 
	d="
M547.734741,730.536743 
	C552.870911,731.271301 553.818542,734.539978 553.434204,738.614990 
	C553.110291,742.047852 551.301086,744.123840 547.724060,744.352417 
	C543.702820,744.609375 541.024231,742.295471 540.687256,738.317017 
	C540.270325,733.395508 542.106262,731.246704 547.734741,730.536743 
z"/>
<path fill="#000000" opacity="1.000000" stroke="none" 
	d="
M525.195129,737.827026 
	C522.634277,743.045288 518.484863,744.868347 514.787048,742.669800 
	C512.206665,741.135620 511.335175,738.670837 511.761292,735.811584 
	C512.127075,733.357666 513.384827,731.416626 515.927917,730.734741 
	C518.855835,729.949646 521.569824,730.310974 523.601135,732.838684 
	C524.661499,734.158203 525.355957,735.661499 525.195129,737.827026 
z"/>
<path fill="#000000" opacity="1.000000" stroke="none" 
	d="
M183.114380,487.818848 
	C182.130890,483.306519 182.061279,479.309937 187.136581,477.871674 
	C190.273880,476.982605 193.276062,477.869629 194.652573,481.044983 
	C196.037674,484.240112 196.101959,487.647339 192.799469,489.914795 
	C189.181717,492.398712 185.948532,491.548615 183.114380,487.818848 
z"/>
<path fill="#000000" opacity="1.000000" stroke="none" 
	d="
M223.545410,480.416077 
	C224.797760,484.589905 225.519363,488.563232 220.575409,490.099030 
	C217.920685,490.923676 214.728180,490.883881 213.362778,487.565125 
	C212.126785,484.560913 211.670883,481.140198 214.537674,478.913269 
	C217.518219,476.598022 220.726501,477.207733 223.545410,480.416077 
z"/>
<path fill="#000000" opacity="1.000000" stroke="none" 
	d="
M241.794556,609.659424 
	C236.050888,606.892700 233.732224,602.885742 234.808762,597.612000 
	C235.744415,593.028503 238.739838,590.363831 243.325912,589.731873 
	C247.763412,589.120239 252.019836,591.731079 253.625870,595.965576 
	C255.008423,599.610779 254.756607,603.240417 252.318573,606.360229 
	C249.757751,609.637085 246.354691,611.028564 241.794556,609.659424 
z"/>
<path fill="#000000" opacity="1.000000" stroke="none" 
	d="
M281.159912,535.511230 
	C280.850006,533.441040 280.684570,531.786743 280.675293,530.131470 
	C280.632904,522.586670 280.655060,522.813354 288.328918,522.597778 
	C292.839813,522.471130 294.842377,523.934021 294.323822,528.550232 
	C294.121216,530.353882 294.342621,532.201782 294.302002,534.028076 
	C294.271667,535.390625 294.087311,537.018677 292.423981,537.068787 
	C288.712097,537.180664 284.827606,538.456665 281.159912,535.511230 
z"/>
</svg>