<?xml version="1.0" standalone="no"?>
<!DOCTYPE svg PUBLIC "-//W3C//DTD SVG 20010904//EN"
 "http://www.w3.org/TR/2001/REC-SVG-20010904/DTD/svg10.dtd">
<svg version="1.0" xmlns="http://www.w3.org/2000/svg"
 width="1024.000000pt" height="1024.000000pt" viewBox="0 0 1024.000000 1024.000000"
 preserveAspectRatio="xMidYMid meet">

<g transform="translate(0.000000,1024.000000) scale(0.100000,-0.100000)"
fill="#000000" stroke="none">
<path d="M8185 8100 c-209 -70 -616 -208 -905 -305 -289 -97 -529 -180 -533
-184 -4 -5 110 -91 255 -193 145 -102 273 -194 285 -204 l23 -19 -111 -130
c-398 -465 -886 -948 -1344 -1330 -755 -629 -1747 -1271 -2675 -1734 -564
-281 -1331 -597 -1521 -627 -191 -31 327 -47 611 -19 430 41 927 166 1360 340
690 278 1619 818 2380 1383 668 496 1379 1156 1770 1645 30 37 59 66 66 63 16
-6 289 -219 448 -350 72 -58 131 -104 133 -103 1 2 25 275 53 608 27 332 59
710 70 839 11 129 22 269 25 310 3 41 8 90 11 108 3 22 1 32 -8 31 -7 0 -184
-58 -393 -129z"/>
<path d="M7725 6273 c-101 -115 -473 -489 -592 -595 l-113 -100 0 -1005 c0
-857 -2 -1021 -16 -1110 -96 -648 -631 -1194 -1351 -1379 -213 -54 -340 -67
-608 -61 -407 9 -678 72 -990 227 -169 85 -296 174 -427 299 l-98 93 0 364 0
363 -71 -29 c-141 -58 -428 -149 -656 -206 -215 -55 -232 -60 -227 -79 3 -11
30 -70 59 -132 372 -783 1416 -1298 2575 -1270 307 8 537 39 800 109 636 169
1164 525 1473 993 123 187 223 428 267 642 38 191 41 309 38 1651 l-3 1294
-60 -69z"/>
<path d="M6585 5204 c-153 -126 -352 -279 -512 -393 l-103 -73 0 -1144 0
-1144 110 55 c125 62 270 158 382 252 74 62 215 205 244 249 12 17 15 205 17
1167 1 631 2 1147 2 1147 0 0 -63 -52 -140 -116z"/>
<path d="M5486 4404 c-184 -118 -510 -317 -552 -336 l-24 -11 0 -915 0 -915
133 6 c155 8 368 38 519 73 l108 26 0 1094 c0 602 -1 1094 -2 1094 -2 0 -84
-53 -182 -116z"/>
<path d="M4475 3808 c-113 -62 -474 -236 -577 -278 l-58 -24 0 -471 0 -471 98
-56 c101 -59 261 -130 372 -166 72 -24 293 -83 296 -79 5 5 -10 1607 -15 1606
-3 0 -55 -27 -116 -61z"/>
</g>
</svg>
