<svg version="1.1" id="Layer_1" xmlns="http://www.w3.org/2000/svg" xmlns:xlink="http://www.w3.org/1999/xlink" x="0px" y="0px"
	 width="100%" viewBox="0 0 1024 1024" enable-background="new 0 0 1024 1024" xml:space="preserve">
<path fill="#000000" opacity="1.000000" stroke="none" 
	d="
M21.673565,566.189209 
	C18.975004,548.427307 18.320343,530.931396 18.205984,513.511292 
	C18.087231,495.421265 19.577526,477.328094 21.367296,459.272125 
	C22.991541,442.886078 25.592278,426.691498 28.965246,410.626190 
	C36.438946,375.029297 47.880802,340.691437 63.237362,307.724548 
	C80.911682,269.781952 103.591003,235.008789 130.520828,202.972244 
	C146.087921,184.453186 162.763367,167.000885 180.770752,150.870544 
	C208.280350,126.228485 238.111969,104.812012 270.488464,86.940147 
	C300.475983,70.386978 331.899323,57.322670 364.637360,47.370956 
	C383.231110,41.718830 402.027008,36.711807 421.186737,33.502438 
	C435.398956,31.121811 449.655945,28.918276 464.054718,27.554983 
	C487.159576,25.367390 510.285248,25.353737 533.413818,25.747744 
	C553.003662,26.081467 572.452209,28.182116 591.855774,31.243763 
	C611.397278,34.327171 630.687439,38.349213 649.688110,43.693775 
	C708.932190,60.358162 763.544495,86.605797 812.724670,123.747871 
	C841.386047,145.393631 867.399414,169.885300 890.907959,197.109863 
	C914.292725,224.191071 934.944885,253.121841 951.879028,284.625427 
	C960.856506,301.326813 968.640503,318.590515 975.460693,336.342743 
	C984.961731,361.073090 992.272217,386.402344 997.575073,412.281158 
	C1000.730347,427.678894 1002.854370,443.274506 1004.601318,458.959045 
	C1007.357788,483.707336 1007.537781,508.452850 1007.039490,533.231812 
	C1006.668396,551.683960 1004.684143,570.093262 1001.743408,588.288757 
	C998.492310,608.404907 994.132812,628.358093 988.231201,647.907654 
	C980.823486,672.446350 971.775452,696.344482 960.663879,719.483765 
	C946.050903,749.914612 928.492126,778.505310 908.168884,805.420837 
	C891.368958,827.670227 872.464233,848.038086 852.335266,867.281372 
	C829.785461,888.838867 805.600952,908.381714 779.448303,925.414795 
	C748.357788,945.664001 715.390503,962.189758 680.507507,974.894897 
	C656.759644,983.544373 632.639099,990.735596 607.800598,995.648193 
	C586.610535,999.839111 565.412537,1003.274536 543.788635,1004.540100 
	C519.961182,1005.934631 496.152771,1006.169739 472.443115,1004.083130 
	C421.929535,999.637512 373.232391,987.342529 326.481415,967.680725 
	C292.145203,953.240051 259.570312,935.475037 229.203949,913.857056 
	C197.606522,891.362671 168.975220,865.511963 143.087921,836.607178 
	C115.829811,806.171753 92.877762,772.763367 73.837013,736.658813 
	C62.958355,716.031128 53.810089,694.647583 46.003815,672.651672 
	C37.987450,650.063782 31.768242,627.004333 27.305660,603.502991 
	C24.990246,591.309265 22.333525,579.117493 21.673565,566.189209 
M118.502228,619.640564 
	C133.831833,619.673767 149.161453,619.738770 164.491013,619.726562 
	C171.993225,619.720520 173.768555,617.776978 173.915070,610.212463 
	C174.266708,592.058472 173.371353,573.890381 174.644379,555.745605 
	C175.506363,543.459839 175.428207,543.589478 188.111557,543.740540 
	C192.138947,543.788574 193.361374,545.354675 193.193741,549.141174 
	C192.848221,556.945801 192.246109,564.732788 193.048706,572.582275 
	C193.756866,579.508301 194.829651,580.915344 201.947220,580.935608 
	C215.613480,580.974487 229.280823,580.857117 242.945694,580.999695 
	C246.940598,581.041382 249.896790,579.666077 252.587418,576.769592 
	C266.529541,561.760681 280.594177,546.865723 294.600281,531.916199 
	C319.082581,505.784729 343.542358,479.632111 368.034271,453.509674 
	C378.060181,442.816345 388.030548,432.067047 398.244904,421.555786 
	C404.679199,414.934509 416.840942,414.350403 422.819580,420.088898 
	C450.103119,446.276703 477.375061,472.476746 504.592377,498.733368 
	C513.429382,507.258514 518.988281,506.973846 526.837341,497.334961 
	C546.284424,473.453339 565.745422,449.582947 585.212646,425.717682 
	C609.515625,395.924225 633.798523,366.114197 658.187988,336.391693 
	C660.733826,333.289215 660.555298,331.398621 657.141663,329.296570 
	C647.780457,323.532043 638.552917,317.551025 629.226440,311.729340 
	C621.458252,306.880341 613.573303,302.216797 605.847046,297.302917 
	C602.951782,295.461548 600.576721,292.819427 601.265076,289.070618 
	C601.910583,285.555267 604.340942,283.487366 607.869446,282.321198 
	C621.285828,277.887177 634.633179,273.244324 648.004089,268.672821 
	C670.654602,260.928589 693.333984,253.267044 715.944580,245.407852 
	C739.357666,237.269745 762.704773,228.942032 786.077148,220.687027 
	C790.347473,219.178787 793.136719,221.349899 795.382019,224.533081 
	C797.081787,226.942886 797.210876,229.791992 797.211731,232.679077 
	C797.229492,291.010986 797.277405,349.342926 797.343018,407.674805 
	C797.346680,410.919159 797.393250,414.101990 793.980103,415.906311 
	C790.296814,417.853394 787.387512,416.218262 784.335327,414.129547 
	C770.871399,404.915649 757.285461,395.879974 743.813843,386.677216 
	C740.680176,384.536530 738.371338,384.503723 735.900269,387.743988 
	C730.863098,394.348999 725.560974,400.752350 720.349365,407.223755 
	C706.165344,424.836578 691.948792,442.423218 677.788635,460.055176 
	C665.073853,475.887482 652.492065,491.827026 639.716309,507.609772 
	C620.961975,530.778381 602.099976,553.859924 583.259766,576.958923 
	C567.170715,596.684875 550.805664,616.192688 535.070984,636.196838 
	C529.565247,643.196533 523.200317,645.525635 514.725342,645.016418 
	C508.443970,644.639099 503.745636,641.748413 499.153595,637.990784 
	C481.631653,623.652771 464.050751,609.386780 446.477570,595.111450 
	C443.567810,592.747742 440.312439,591.098145 436.454956,591.200500 
	C430.833740,591.349548 427.717804,596.916626 430.678619,601.530640 
	C431.839722,603.340149 433.091309,605.143066 434.574890,606.686340 
	C455.356140,628.304138 476.205566,649.856384 496.992950,671.468262 
	C507.614166,682.510803 518.117920,693.666199 528.726685,704.720825 
	C534.588623,710.829041 538.501953,711.135437 545.271057,706.166748 
	C546.878296,704.987061 548.500793,703.783752 549.906616,702.381165 
	C560.045349,692.265259 570.095032,682.060120 580.237976,671.948364 
	C626.242310,626.085632 672.296448,580.272705 718.255310,534.364502 
	C725.042542,527.584839 732.300049,521.222473 738.412842,513.641785 
	C737.686462,512.647522 737.214355,511.980438 736.721130,511.329468 
	C732.364563,505.580383 726.631409,501.184631 721.666687,496.032806 
	C720.224121,494.535889 719.015015,492.950165 719.619995,490.727264 
	C720.183289,488.657532 721.899048,488.070343 723.786438,487.697601 
	C740.378357,484.420624 756.983154,481.205444 773.549500,477.803162 
	C789.958862,474.433075 806.201050,470.247040 822.751465,467.569275 
	C830.447083,466.324158 833.407410,469.507660 832.040955,477.469086 
	C830.724304,485.140411 829.308289,492.797974 827.753845,500.424438 
	C824.937988,514.239197 822.178955,528.070374 819.033447,541.811707 
	C816.330261,553.621094 813.703735,565.490173 809.169556,576.781433 
	C807.269165,581.513977 804.496399,582.099915 800.746704,578.749207 
	C797.270996,575.643311 793.963745,572.343262 790.665955,569.045044 
	C783.171692,561.549805 783.113342,561.452576 775.621399,569.224915 
	C744.295776,601.722778 713.111206,634.356873 681.702026,666.773621 
	C654.344788,695.008545 626.793945,723.056335 599.257629,751.117126 
	C574.052551,776.802307 548.596497,802.243774 523.609924,828.138916 
	C517.734863,834.227478 512.183289,838.506348 503.073425,837.481262 
	C496.708801,836.765137 494.279999,840.009766 494.263275,846.719116 
	C494.205231,870.051392 494.193329,893.383789 494.213165,916.716187 
	C494.214996,918.867920 494.382477,921.055725 494.795746,923.163452 
	C495.625275,927.394348 498.526733,929.377502 502.667175,929.365906 
	C511.629761,929.340820 520.603455,929.383179 529.549377,928.934387 
	C534.165649,928.702759 535.351196,930.540100 535.172058,934.723267 
	C534.937012,940.212891 535.245483,945.724060 535.084229,951.218994 
	C534.963013,955.351807 536.830566,957.086426 540.806458,956.728027 
	C543.617004,956.474487 546.409363,955.921753 549.222290,955.807373 
	C570.882507,954.926025 592.040833,950.842957 613.097351,946.022217 
	C629.633484,942.236328 645.785461,937.194580 661.810364,931.671326 
	C683.899414,924.057983 705.196777,914.611694 725.633545,903.370850 
	C756.957458,886.141724 785.761169,865.346191 812.449951,841.489380 
	C835.397156,820.977112 856.099487,798.490723 874.366394,773.797791 
	C901.372437,737.291504 922.464111,697.647400 937.321106,654.633484 
	C949.749573,618.650513 957.893372,581.736694 960.356201,543.869019 
	C962.154663,516.216980 962.180420,488.427307 958.266479,460.733093 
	C955.526001,441.342377 952.661621,422.046143 947.934021,403.023743 
	C942.992310,383.139862 936.659729,363.717163 928.933411,344.775940 
	C913.295044,306.438080 892.163452,271.363251 866.102234,239.158371 
	C836.718628,202.847961 802.377563,172.048019 763.673706,146.100464 
	C715.532043,113.825768 662.680908,92.740364 606.083252,80.712784 
	C583.103760,75.829407 559.813110,72.754112 536.456055,71.650284 
	C494.278290,69.657005 452.415039,73.045250 411.186890,82.914902 
	C394.684967,86.865318 378.284454,91.176300 362.286621,96.752113 
	C331.077515,107.629593 301.435089,121.834885 273.285004,139.264191 
	C247.117203,155.466125 222.930511,174.164078 200.626404,195.276535 
	C173.180374,221.256165 149.196884,250.129562 129.092133,282.208557 
	C114.097916,306.133209 101.511543,331.267090 91.736877,357.693268 
	C81.938271,384.184113 74.111870,411.276001 69.535881,439.268036 
	C66.551445,457.524323 64.518524,475.847748 64.258133,494.301147 
	C63.941246,516.758118 63.594986,539.226562 66.174919,561.641968 
	C67.675636,574.680786 69.773132,587.597107 72.322174,600.440186 
	C75.754700,617.734680 80.480682,634.714539 86.454468,651.300476 
	C89.458282,659.640503 92.108971,668.190002 97.118553,676.836365 
	C98.853264,670.906006 98.885551,665.831116 98.879570,660.736816 
	C98.866066,649.237427 98.940346,637.738037 98.913338,626.238770 
	C98.902794,621.748901 100.700783,619.385498 105.505844,619.622131 
	C109.495659,619.818481 113.503510,619.648315 118.502228,619.640564 
M205.591812,737.970337 
	C209.021439,728.913086 208.462326,720.195129 203.828293,711.604858 
	C198.192856,701.158325 186.256973,694.813538 174.268250,696.236206 
	C160.749817,697.840515 151.777542,706.260620 147.824585,721.052551 
	C145.475433,729.843018 151.231720,744.339722 159.137894,750.350037 
	C174.206192,761.805176 197.360184,757.280823 205.591812,737.970337 
M249.581741,613.487549 
	C237.941544,613.434631 226.301193,613.324036 214.661224,613.355103 
	C209.511749,613.368835 207.442230,615.459290 207.405716,620.679199 
	C207.320770,632.819641 207.443985,644.961731 207.329788,657.101685 
	C207.284668,661.899353 209.802490,664.483704 214.162430,664.588196 
	C225.131683,664.851074 236.119156,664.886963 247.084824,664.546631 
	C252.789276,664.369629 254.838547,661.840088 254.884384,656.322144 
	C254.979675,644.846985 254.961990,633.370850 254.968704,621.895081 
	C254.970779,618.328247 253.854568,615.352844 249.581741,613.487549 
M372.314362,915.021790 
	C377.506897,914.649780 376.497498,910.541016 376.514557,907.495728 
	C376.647766,883.684265 376.629791,859.871765 376.628815,836.059631 
	C376.628387,825.802368 376.593658,826.006470 366.378082,825.867065 
	C361.571472,825.801392 360.041351,827.523987 360.076813,832.260437 
	C360.256165,856.237854 360.142914,880.217407 360.181305,904.196106 
	C360.199585,915.612000 360.248962,915.611938 372.314362,915.021790 
M305.071503,789.648987 
	C303.406403,794.180664 303.913696,798.914490 304.357788,803.484619 
	C304.747742,807.497803 303.375732,808.431763 299.741852,808.337280 
	C292.750061,808.155396 285.750061,808.289001 278.753448,808.294312 
	C267.355133,808.302917 266.867401,808.920105 267.913055,820.592163 
	C268.165894,823.414734 269.169647,824.807495 272.181549,824.793457 
	C287.007233,824.724365 301.833801,824.704102 316.659119,824.807617 
	C319.891998,824.830200 321.353882,823.322205 321.384308,820.391357 
	C321.481079,811.067383 321.496216,801.741394 321.405609,792.417542 
	C321.385529,790.351013 320.676910,788.303833 317.984528,788.375732 
	C313.861572,788.485840 309.681396,787.593872 305.071503,789.648987 
M298.182312,740.396118 
	C298.376953,746.936035 298.376923,746.960205 304.971558,746.971191 
	C314.122559,746.986450 323.274323,747.031311 332.424469,746.937012 
	C346.876312,746.788086 344.579315,748.824402 344.953461,734.005554 
	C345.063812,729.635498 343.443176,727.963379 339.125763,728.295959 
	C329.511475,729.036255 319.881104,729.665649 310.237579,728.817017 
	C295.866608,727.552490 298.840424,728.566223 298.182312,740.396118 
M305.087494,886.129883 
	C305.114471,890.327332 308.223480,889.700134 310.791626,889.653381 
	C320.772430,889.471863 321.346619,891.671814 321.452698,879.822693 
	C321.563599,867.436157 321.891388,867.439148 309.525696,868.001038 
	C309.193848,868.016113 308.861572,868.048401 308.530121,868.041870 
	C305.612335,867.984558 304.225708,869.443542 304.361298,872.323914 
	C304.564056,876.630676 304.812256,880.935364 305.087494,886.129883 
M376.849365,533.495728 
	C376.018494,533.468018 375.187775,533.424927 374.356689,533.414978 
	C360.239410,533.245911 362.513123,533.468079 362.380554,545.630127 
	C362.369690,546.626831 362.412445,547.625610 362.470001,548.621155 
	C362.630066,551.391663 363.984802,552.889648 366.886993,552.850830 
	C383.492188,552.628845 380.669098,554.478088 381.083771,539.846375 
	C381.107300,539.017273 381.039307,538.185242 381.004028,537.354980 
	C380.913269,535.219299 379.792816,533.990112 376.849365,533.495728 
M256.192047,713.663635 
	C261.290985,714.279297 262.951233,711.868774 262.759430,706.966064 
	C262.302704,695.292847 265.152527,694.518250 251.322662,694.650024 
	C244.408142,694.715942 244.078094,694.727783 244.044418,701.870483 
	C243.979996,715.534546 243.366470,713.488159 256.192047,713.663635 
M217.343567,815.865295 
	C223.781921,815.756714 223.931839,815.753296 223.778656,809.056580 
	C223.492050,796.526306 226.468430,797.565247 212.698639,797.277100 
	C205.270416,797.121582 205.208237,797.218933 205.269897,804.721863 
	C205.375656,817.591064 203.702530,815.571045 217.343567,815.865295 
M339.896576,569.274963 
	C339.536987,554.843994 342.857971,556.159851 326.613281,556.240173 
	C322.671600,556.259644 320.881042,558.055969 321.225952,562.104675 
	C321.450226,564.737061 321.416351,567.410828 321.256805,570.051575 
	C321.055725,573.380066 322.249756,575.015869 325.781403,574.823914 
	C328.920197,574.653320 332.081573,574.651184 335.221161,574.809265 
	C338.600128,574.979431 340.229584,573.652893 339.896576,569.274963 
M244.140106,749.968872 
	C244.131073,753.280273 244.101364,756.591736 244.118729,759.903015 
	C244.136627,763.319031 246.349365,764.860779 249.277588,764.543640 
	C253.734253,764.061035 259.013000,767.024597 262.450867,761.803406 
	C262.773102,761.314087 262.682129,760.510681 262.677094,759.853943 
	C262.553741,743.754578 264.703552,746.400635 249.645676,746.083252 
	C248.820740,746.065857 247.989609,746.132019 247.167816,746.219666 
	C245.449722,746.403076 244.514786,747.414734 244.140106,749.968872 
M148.887451,662.225830 
	C148.887405,660.562988 148.895828,658.900024 148.885818,657.237244 
	C148.842239,649.995239 148.835663,650.123108 141.737991,649.865173 
	C128.596939,649.387695 130.320404,648.388611 130.189270,661.453003 
	C130.165009,663.869507 129.632889,666.478271 133.417679,667.024963 
	C142.171234,668.289062 147.718353,667.025940 148.887451,662.225830 
M288.595581,619.825684 
	C290.415894,619.739258 292.647369,620.299866 293.983276,619.451050 
	C298.978058,616.277283 295.939545,611.065552 296.567871,606.772034 
	C296.919830,604.366943 296.947388,601.816345 293.584686,600.839722 
	C286.295746,598.722717 282.435669,601.367004 282.355133,608.815857 
	C282.335419,610.641174 282.489502,612.481323 282.309387,614.289307 
	C281.902771,618.370911 283.602783,620.231323 288.595581,619.825684 
M379.343170,628.755615 
	C383.812927,629.373840 385.327576,627.179688 384.899689,623.014038 
	C384.765289,621.705811 384.750458,620.357666 384.899567,619.052795 
	C385.468475,614.074219 383.725250,611.499451 378.314423,612.125671 
	C375.778137,612.419128 372.088379,610.788330 370.986084,613.387512 
	C369.190094,617.622375 369.372253,622.635620 370.870300,626.962708 
	C372.011505,630.259094 375.831177,628.312683 379.343170,628.755615 
M312.675018,687.003906 
	C312.523987,686.195801 312.657928,685.094788 312.176453,684.626343 
	C308.668884,681.213318 304.358643,682.729187 300.395264,683.199768 
	C297.030426,683.599304 297.459991,686.738647 297.431732,689.162170 
	C297.408691,691.138123 297.658661,693.123596 297.882019,695.094177 
	C298.096375,696.985046 299.340332,697.921936 301.102051,698.419800 
	C309.167480,700.699036 312.690338,698.113464 312.705719,689.851135 
	C312.706970,689.187500 312.698730,688.523865 312.675018,687.003906 
M266.458405,869.798706 
	C266.736359,869.193787 267.097473,868.612671 267.278595,867.980103 
	C268.307159,864.387146 267.275299,861.378113 264.422302,859.070984 
	C261.565857,856.760986 258.299774,856.506470 255.047806,858.028198 
	C251.697311,859.596069 251.226700,862.640320 251.196732,866.020935 
	C251.159225,870.250183 253.690750,872.344055 257.031799,873.859558 
	C261.127594,875.717285 263.483765,872.694763 266.458405,869.798706 
M457.596130,902.999634 
	C462.634277,905.503540 467.157104,903.879150 469.182587,898.838318 
	C471.031738,894.236389 468.623901,889.036255 463.880524,887.692200 
	C460.491272,886.731750 457.600098,887.838135 455.585968,890.658813 
	C452.421295,895.090942 452.819855,897.765503 457.596130,902.999634 
M367.298431,692.173462 
	C367.299286,693.996948 367.093658,695.849121 367.342285,697.638184 
	C367.931488,701.877625 372.194733,704.785828 376.114014,703.320862 
	C379.799103,701.943420 382.889984,699.597839 382.928589,695.045532 
	C382.963074,690.980530 380.704834,688.385376 376.995483,687.429626 
	C373.042450,686.411133 369.290436,686.788208 367.298431,692.173462 
M462.856445,840.691528 
	C458.819092,839.951721 456.233551,841.800171 454.439850,845.266541 
	C452.705750,848.617615 453.289520,851.621277 455.425354,854.544678 
	C457.578339,857.491638 460.671356,857.291321 463.549957,856.624023 
	C467.093353,855.802551 469.231171,853.096985 469.626251,849.543396 
	C470.122162,845.082703 467.371399,842.536072 462.856445,840.691528 
M427.990814,657.440674 
	C422.393066,655.703186 417.948914,657.763611 416.583344,662.729431 
	C415.437897,666.894958 418.560333,672.035828 422.947876,673.208313 
	C426.198975,674.076965 431.015320,670.627502 432.167389,666.422363 
	C433.182983,662.715210 431.222656,660.087280 427.990814,657.440674 
M381.881561,778.596924 
	C386.195374,776.793213 389.381622,774.117798 388.133728,768.891785 
	C387.149902,764.771423 382.937347,762.110229 379.137787,762.771423 
	C375.378540,763.425476 372.165161,767.501343 372.355408,771.374146 
	C372.574371,775.830322 375.689209,778.428955 381.881561,778.596924 
M420.710785,717.965515 
	C424.462891,719.652771 427.485443,718.658691 429.857880,715.426819 
	C431.531281,713.147217 433.373444,710.930237 431.749146,707.771240 
	C430.125793,704.614075 427.973511,702.257324 424.128784,702.350464 
	C420.317383,702.442810 417.892059,704.718445 416.764221,708.067078 
	C415.474213,711.897156 416.461395,715.278748 420.710785,717.965515 
M417.577667,759.776062 
	C420.317505,763.327393 423.676636,765.067261 427.842285,762.408081 
	C431.724854,759.929749 432.748840,755.180237 430.606110,751.459290 
	C428.853027,748.414978 423.833496,746.865356 420.490326,748.807190 
	C416.489502,751.130920 415.425537,754.731445 417.577667,759.776062 
M468.719849,945.001221 
	C469.229156,940.809875 468.153503,937.171631 463.930389,935.705627 
	C460.561340,934.536011 457.367615,935.531555 455.265381,938.768921 
	C452.818573,942.536926 453.659760,947.503418 457.124115,949.796265 
	C461.006500,952.365784 465.421600,950.810974 468.719849,945.001221 
M466.975769,764.627258 
	C470.682495,763.238464 472.643188,755.026123 469.930603,752.250977 
	C467.842773,750.114990 458.610901,750.809753 457.584381,753.180115 
	C454.748016,759.729675 457.997314,764.694519 465.110321,764.678772 
	C465.442963,764.678040 465.775604,764.670105 466.975769,764.627258 
M421.281036,873.052490 
	C426.264404,873.284729 429.890015,870.745544 430.254028,866.768311 
	C430.619232,862.777832 427.485748,858.659424 423.713104,858.171387 
	C418.944397,857.554504 416.101227,859.641296 415.565277,864.514404 
	C415.133423,868.441711 417.279633,871.037354 421.281036,873.052490 
M495.631622,806.851868 
	C500.163696,810.391724 504.222198,809.994873 507.438934,805.697266 
	C509.901031,802.407776 508.635437,797.859131 504.592682,795.092224 
	C501.815826,793.191772 499.250793,793.634521 496.975342,795.768860 
	C493.783417,798.762756 492.323242,802.178711 495.631622,806.851868 
M467.628845,807.447937 
	C468.205902,806.853210 468.824371,806.292847 469.352997,805.657776 
	C471.851624,802.655457 470.946686,799.858276 468.834839,797.108459 
	C466.739990,794.380798 463.918915,793.501404 460.861237,794.688660 
	C457.643036,795.938232 456.032196,798.533386 456.268951,802.186218 
	C456.657227,808.177307 460.161652,810.067932 467.628845,807.447937 
M344.723236,640.840210 
	C344.772308,640.015747 344.865234,639.191162 344.863342,638.366821 
	C344.850922,633.019714 343.225250,631.194946 338.443329,631.122070 
	C333.649902,631.048950 331.388977,633.487671 331.328430,638.561523 
	C331.291595,641.652893 332.091980,644.319214 335.245300,645.273376 
	C339.144379,646.453186 342.371368,645.186035 344.723236,640.840210 
M429.805603,913.898315 
	C430.114349,909.608215 430.342407,905.231201 424.583099,904.450562 
	C420.641449,903.916260 417.829712,905.898621 416.535522,909.585449 
	C415.223663,913.322571 417.234039,917.441223 420.981201,918.951782 
	C425.372253,920.721863 427.765259,918.154419 429.805603,913.898315 
M500.032532,750.593872 
	C495.818665,751.682678 494.030762,754.650940 494.380524,758.721924 
	C494.650330,761.861877 496.129639,764.357239 499.785889,764.827576 
	C504.149780,765.388977 507.869629,762.915161 508.590729,758.799438 
	C509.448273,753.904785 507.053955,751.346130 500.032532,750.593872 
M431.166840,821.534546 
	C429.106781,815.843018 425.847595,812.775574 422.409027,813.752563 
	C418.897339,814.750427 416.739410,817.473022 416.559845,821.025513 
	C416.363586,824.907776 418.520721,827.837646 422.419525,828.533752 
	C427.221283,829.391113 429.710419,826.383057 431.166840,821.534546 
z"/>
<path fill="#000000" opacity="1.000000" stroke="none" 
	d="
M206.289307,383.129578 
	C206.301392,408.933563 206.323395,434.253052 206.313889,459.572510 
	C206.311447,466.099091 205.276932,467.263458 198.827164,467.225891 
	C174.846100,467.086243 150.865738,466.827301 126.884865,466.647003 
	C124.559715,466.629517 122.225136,466.761841 119.908386,466.972595 
	C115.731003,467.352478 113.805000,465.799286 113.897438,461.335327 
	C114.128502,450.178833 113.681709,438.998779 114.194870,427.859863 
	C114.931419,411.871826 114.841385,395.889282 114.655342,379.905914 
	C114.612183,376.198029 115.590950,374.837067 119.325577,374.849213 
	C146.477097,374.937653 173.629318,374.967255 200.780594,374.851166 
	C206.779816,374.825531 206.342850,378.719452 206.289307,383.129578 
M164.498428,401.216705 
	C157.501099,401.217407 150.503036,401.277863 143.506821,401.189728 
	C140.665421,401.153931 139.161728,402.060059 139.181213,405.171539 
	C139.253250,416.666565 139.228607,428.162384 139.181625,439.657684 
	C139.171036,442.246338 139.961670,443.728302 142.877960,443.710083 
	C154.206528,443.639313 165.535934,443.709534 176.864624,443.650452 
	C179.700516,443.635620 181.620728,442.433655 181.708298,439.198425 
	C182.010040,428.050873 182.302048,416.902069 182.755447,405.760162 
	C182.901672,402.166687 181.330261,401.087952 177.990906,401.222626 
	C173.833084,401.390259 169.662460,401.239990 164.498428,401.216705 
z"/>
<path fill="#000000" opacity="1.000000" stroke="none" 
	d="
M216.737091,291.699951 
	C216.690079,271.587128 216.709869,251.944214 216.614410,232.301849 
	C216.592606,227.817581 216.059174,223.337494 215.970886,218.851334 
	C215.894547,214.971863 217.430130,212.580154 221.890518,212.705017 
	C243.863220,213.320206 265.804077,211.717026 287.769592,211.595932 
	C291.796326,211.573715 293.375946,212.822144 293.390228,217.014755 
	C293.469482,240.305710 293.796478,263.595673 293.976105,286.886475 
	C294.028381,293.667175 293.589722,294.012268 287.041473,294.084961 
	C265.411041,294.325104 243.766235,293.453857 222.150497,294.952362 
	C219.912399,295.107574 217.243134,295.629974 216.737091,291.699951 
M260.136902,238.910736 
	C254.818527,238.993301 249.500244,239.127213 244.181732,239.136917 
	C241.494324,239.141815 240.216797,240.265625 240.243759,243.015091 
	C240.310577,249.829544 240.348999,256.645508 240.277328,263.459564 
	C240.242966,266.724792 241.792770,267.812225 244.887970,267.752106 
	C251.368484,267.626160 257.855316,267.586273 264.334625,267.730377 
	C267.917297,267.810028 268.965240,266.107178 268.882538,262.850525 
	C268.739075,257.201752 268.792786,251.548157 268.749573,245.896698 
	C268.689911,238.093399 268.684265,238.093445 260.136902,238.910736 
z"/>
<path fill="#000000" opacity="1.000000" stroke="none" 
	d="
M387.316162,335.110321 
	C390.615326,352.107025 386.607269,366.435333 374.409332,378.371002 
	C354.929352,397.432190 321.872620,392.431702 308.522919,368.703979 
	C298.613983,351.091980 300.991760,329.893768 314.048584,314.785278 
	C321.796387,305.820038 332.459076,302.000671 344.346008,301.942871 
	C365.333862,301.840820 381.651550,314.290070 387.316162,335.110321 
M339.106598,329.341614 
	C338.352173,329.685730 337.571625,329.982422 336.847229,330.381134 
	C326.979889,335.812866 324.453766,345.950958 330.515228,355.742676 
	C335.639740,364.020782 346.894562,366.072510 355.375763,360.274658 
	C362.379852,355.486603 364.903015,346.465942 361.426361,338.642761 
	C357.758057,330.388306 349.949066,326.929108 339.106598,329.341614 
z"/>
<path fill="#000000" opacity="1.000000" stroke="none" 
	d="
M107.151138,495.043213 
	C116.116371,495.001373 124.603996,494.828888 133.084290,495.006348 
	C139.613113,495.142944 141.307709,497.054840 141.323410,503.484833 
	C141.346573,512.968079 141.241684,522.452087 141.328735,531.934509 
	C141.363510,535.721313 139.812225,537.354492 135.968262,537.315063 
	C125.321396,537.205750 114.670662,537.163452 104.025627,537.342346 
	C99.990570,537.410156 98.832161,535.638611 98.884346,531.931763 
	C99.020149,522.283813 98.937866,512.632874 98.953178,502.983124 
	C98.965439,495.254791 98.972321,495.254791 107.151138,495.043213 
z"/>
<path fill="#000000" opacity="1.000000" stroke="none" 
	d="
M251.056763,394.867401 
	C257.710541,394.779541 263.879089,394.841614 270.030334,394.545044 
	C273.766998,394.364899 275.480164,395.863129 275.008698,399.469879 
	C273.968079,407.430695 274.267792,415.435364 274.069946,423.420288 
	C273.983337,426.916199 272.878021,428.552032 269.078339,428.432068 
	C262.088776,428.211395 255.083923,428.271729 248.091003,428.442596 
	C244.349243,428.533966 242.661697,427.300751 242.648376,423.301239 
	C242.624023,415.984619 242.085861,408.671295 241.899704,401.353119 
	C241.731430,394.738525 241.812531,394.736664 248.565292,394.841705 
	C249.231583,394.852051 249.897934,394.858093 251.056763,394.867401 
z"/>
<path fill="#000000" opacity="1.000000" stroke="none" 
	d="
M334.965088,179.956665 
	C340.569580,179.595795 345.706177,179.248978 350.841888,178.889694 
	C354.678986,178.621246 356.299347,180.476730 356.267242,184.234634 
	C356.206055,191.391449 356.217255,198.550003 356.306274,205.706482 
	C356.345184,208.833817 355.039032,210.307922 351.863129,210.277023 
	C345.372162,210.213867 338.879486,210.196228 332.388977,210.276016 
	C329.642395,210.309784 328.248688,208.842590 328.165039,206.413879 
	C327.896027,198.602005 327.559692,190.773285 327.817780,182.969864 
	C327.964203,178.541824 332.033722,180.513214 334.965088,179.956665 
z"/>
<path fill="#000000" opacity="1.000000" stroke="none" 
	d="
M133.927673,334.154724 
	C134.063553,325.193054 134.291870,324.951599 142.632477,324.913757 
	C147.453384,324.891907 152.275391,324.972198 157.095184,324.896210 
	C160.549698,324.841766 162.442230,326.231842 162.392380,329.865967 
	C162.305771,336.182343 162.237411,342.499298 162.223450,348.816162 
	C162.216965,351.754608 160.812134,352.953400 157.918869,352.978180 
	C151.603134,353.032257 145.282806,353.122040 138.976074,353.433960 
	C135.354538,353.613098 133.761169,352.278198 133.874466,348.596313 
	C134.017593,343.945770 133.919159,339.287842 133.927673,334.154724 
z"/>
<path fill="#000000" opacity="1.000000" stroke="none" 
	d="
M201.034943,351.977203 
	C194.103668,351.866089 193.896240,351.669128 193.874466,345.154144 
	C193.857758,340.157745 193.955017,335.159851 193.862381,330.165222 
	C193.798096,326.698669 195.089401,324.864594 198.799774,324.923706 
	C204.960403,325.021942 211.124100,324.967255 217.286102,324.920807 
	C219.885620,324.901245 221.063187,325.945312 221.473831,328.671692 
	C222.424622,334.984711 222.174530,341.295197 222.038010,347.615662 
	C221.982330,350.193268 220.763000,351.420532 217.953201,351.422882 
	C212.466141,351.427490 206.979385,351.770142 201.034943,351.977203 
z"/>
<path fill="#000000" opacity="1.000000" stroke="none" 
	d="
M335.403931,427.996277 
	C340.063873,438.901733 335.967743,448.781250 326.003204,451.532623 
	C319.309479,453.380859 312.135651,450.084564 308.897491,443.672760 
	C305.665497,437.273193 307.788910,428.295563 313.588348,423.839905 
	C318.929138,419.736633 327.465973,420.127075 332.469452,424.745819 
	C333.443359,425.644836 334.281128,426.691345 335.403931,427.996277 
z"/>
<path fill="#000000" opacity="1.000000" stroke="none" 
	d="
M331.105164,245.006073 
	C339.112793,243.078171 346.899078,244.019775 354.648193,243.947861 
	C356.820862,243.927689 357.298340,245.563263 357.262817,247.409821 
	C357.141602,253.710266 357.020599,260.010681 356.905029,266.311249 
	C356.861267,268.699066 355.683716,270.093597 353.276642,270.128387 
	C347.312988,270.214661 341.354187,270.223907 335.422760,271.048706 
	C333.876556,271.263733 332.060822,270.609741 331.946136,268.919128 
	C331.413208,261.062042 328.868927,253.290878 331.105164,245.006073 
z"/>
<path fill="#000000" opacity="1.000000" stroke="none" 
	d="
M260.012421,324.907532 
	C262.328613,324.917053 264.152985,324.928375 265.977325,324.934540 
	C274.776154,324.964264 275.430389,325.610107 274.975800,334.245636 
	C274.758118,338.381500 274.334503,342.506683 274.128479,346.642914 
	C273.969025,349.844666 272.671387,351.341675 269.220947,351.361664 
	C263.925964,351.392303 258.631622,351.875671 253.341232,352.229980 
	C250.181763,352.441620 248.766525,351.062988 248.796524,347.888214 
	C248.851364,342.084259 248.955307,336.271118 248.697159,330.477051 
	C248.518204,326.460876 249.864746,324.526733 254.049683,324.886139 
	C255.860550,325.041656 257.696167,324.908783 260.012421,324.907532 
z"/>
<path fill="#000000" opacity="1.000000" stroke="none" 
	d="
M412.977264,268.005310 
	C404.945160,269.885529 397.152893,268.779266 389.395966,268.919464 
	C387.462646,268.954437 386.451904,267.821472 386.510986,265.711487 
	C386.664093,260.241974 386.704163,254.769180 386.775177,249.297531 
	C386.814484,246.268845 388.116119,244.809509 391.354645,244.878601 
	C397.652954,245.012955 403.956940,244.884155 410.258575,244.858353 
	C412.400452,244.849594 414.616425,245.150604 414.384277,247.889664 
	C413.825531,254.482315 414.694763,261.150055 412.977264,268.005310 
z"/>
<path fill="#000000" opacity="1.000000" stroke="none" 
	d="
M185.693756,273.799805 
	C188.776764,274.136993 189.258789,276.003510 189.262863,278.154785 
	C189.272629,283.314789 189.206390,288.475159 189.245590,293.634796 
	C189.267151,296.474396 187.765884,297.401001 185.159912,297.374207 
	C179.666687,297.317719 174.171127,297.279327 168.679260,297.381622 
	C165.556168,297.439819 164.626495,295.870819 164.724884,293.048187 
	C164.898865,288.057648 164.989502,283.063477 165.052902,278.070068 
	C165.092972,274.915985 166.615250,273.663605 169.744156,273.742493 
	C174.901627,273.872528 180.064911,273.772278 185.693756,273.799805 
z"/>
<path fill="#000000" opacity="1.000000" stroke="none" 
	d="
M236.318573,550.129883 
	C236.314972,553.765381 236.057770,556.944092 236.363541,560.067688 
	C236.847702,565.014099 234.628220,566.578186 230.005142,566.215454 
	C226.705551,565.956665 223.367325,566.097412 220.049759,566.186707 
	C216.722763,566.276184 215.111755,564.734863 215.100418,561.440063 
	C215.085556,557.124512 215.070831,552.808899 215.044006,548.493408 
	C215.023865,545.254456 216.386978,543.604126 219.857498,543.766602 
	C223.334854,543.929321 226.841583,543.957214 230.309799,543.699341 
	C234.777740,543.367188 236.952667,544.998840 236.318573,550.129883 
z"/>
<path fill="#000000" opacity="1.000000" stroke="none" 
	d="
M234.442093,509.781189 
	C228.903748,513.088928 223.092911,512.160217 217.386307,511.918457 
	C215.840454,511.852997 215.298920,510.378448 215.150925,508.996948 
	C215.009598,507.677551 215.035172,506.337860 215.028305,505.006866 
	C214.950302,489.861481 215.722961,489.229187 231.109207,490.977417 
	C233.990646,491.304779 235.262665,492.598907 235.177567,495.468201 
	C235.039642,500.118439 235.511505,504.792389 234.442093,509.781189 
z"/>
<path fill="#000000" opacity="1.000000" stroke="none" 
	d="
M274.356537,511.417725 
	C269.126923,512.930603 264.152588,512.084106 259.208252,512.195923 
	C256.616791,512.254517 255.761612,510.404236 255.710236,508.253510 
	C255.603439,503.782990 255.695007,499.307800 255.697540,494.834534 
	C255.698868,492.491028 257.020477,491.654724 259.186279,491.656799 
	C263.329498,491.660767 267.473267,491.648956 271.615784,491.581787 
	C273.821899,491.546021 275.170593,492.455322 275.146484,494.736420 
	C275.088898,500.182617 275.769867,505.652985 274.356537,511.417725 
z"/>
<path fill="#000000" opacity="1.000000" stroke="none" 
	d="
M178.379303,491.090271 
	C195.740906,490.958954 192.088989,491.241486 192.355972,504.693146 
	C192.506531,512.279602 192.367081,512.319336 184.667389,512.272705 
	C173.028030,512.202148 173.879669,513.257141 173.869949,501.602905 
	C173.868301,499.616211 173.932022,497.629333 173.920715,495.642792 
	C173.905228,492.919678 174.955917,491.173950 178.379303,491.090271 
z"/>
<path fill="#000000" opacity="1.000000" stroke="none" 
	d="
M597.530945,906.786987 
	C592.939941,909.253845 589.360291,907.785156 586.433655,904.623108 
	C583.560120,901.518494 583.090210,897.796997 585.141724,893.990784 
	C587.403687,889.794373 591.273987,889.269531 595.480591,889.760986 
	C598.843750,890.153870 601.031799,892.287781 601.925476,895.297119 
	C603.287598,899.884155 602.081055,903.852722 597.530945,906.786987 
z"/>
<path fill="#000000" opacity="1.000000" stroke="none" 
	d="
M624.514709,844.543030 
	C628.209229,849.342651 628.213013,854.254822 624.833313,857.312561 
	C621.615356,860.223999 615.026123,860.202698 611.931885,857.270874 
	C608.634094,854.146240 608.195251,848.896057 610.949158,845.512451 
	C614.402649,841.269226 618.923523,840.853394 624.514709,844.543030 
z"/>
<path fill="#000000" opacity="1.000000" stroke="none" 
	d="
M544.602173,840.900635 
	C552.929260,844.942383 554.527405,853.155701 548.155762,857.514954 
	C544.803528,859.808472 541.246765,859.931213 537.930237,857.441956 
	C534.356079,854.759277 534.038208,850.791504 535.097656,847.015198 
	C536.301147,842.725220 539.598633,840.583679 544.602173,840.900635 
z"/>
<path fill="#000000" opacity="1.000000" stroke="none" 
	d="
M580.141724,841.897339 
	C586.126160,842.692139 589.440308,845.413025 589.663818,850.081055 
	C589.841064,853.782471 588.230103,856.860718 584.586243,858.451904 
	C579.501587,860.672302 574.466431,858.743896 572.609985,853.896057 
	C570.622681,848.706360 573.416260,844.006775 580.141724,841.897339 
z"/>
<path fill="#000000" opacity="1.000000" stroke="none" 
	d="
M563.519409,897.218262 
	C563.077820,904.144226 560.431152,907.213440 555.327698,907.155823 
	C550.875244,907.105591 547.557129,903.720520 547.183899,898.847839 
	C546.791260,893.722229 549.141296,890.283569 553.421570,889.721008 
	C559.761719,888.887756 562.415771,890.765564 563.519409,897.218262 
z"/>
<path fill="#000000" opacity="1.000000" stroke="none" 
	d="
M514.097473,890.978394 
	C518.052795,888.674133 521.795654,888.551025 525.055542,891.196533 
	C527.583313,893.247803 528.914001,896.212280 527.933044,899.612976 
	C526.934387,903.075012 524.641052,905.245972 520.977478,905.838867 
	C517.055176,906.473572 514.168152,904.919617 512.249390,901.591187 
	C510.053497,897.782166 510.795349,894.303040 514.097473,890.978394 
z"/>
<path fill="#000000" opacity="1.000000" stroke="none" 
	d="
M104.365318,589.901001 
	C100.276497,587.031555 99.297813,583.444580 100.618141,579.157349 
	C101.515747,576.242798 103.305397,574.187012 106.499557,573.786987 
	C110.223938,573.320374 113.649536,573.956726 115.403511,577.686707 
	C116.949982,580.975403 117.362679,584.648926 114.891869,587.593750 
	C112.281029,590.705444 108.839600,592.310913 104.365318,589.901001 
z"/>
<path fill="#000000" opacity="1.000000" stroke="none" 
	d="
M142.666168,589.583374 
	C137.161316,587.266907 137.159851,582.889587 137.993744,578.497070 
	C138.636780,575.109863 141.229721,573.727356 144.646072,573.695862 
	C149.490814,573.651184 152.523651,576.557007 152.852386,581.729919 
	C153.157898,586.537842 150.536057,589.468201 145.535034,589.840271 
	C144.716400,589.901062 143.881485,589.743042 142.666168,589.583374 
z"/>
<path fill="#000000" opacity="1.000000" stroke="none" 
	d="
M181.251678,738.840698 
	C172.672729,739.856079 167.230515,736.400818 165.420929,729.183838 
	C163.958984,723.353210 166.972580,717.002319 172.286331,714.715698 
	C179.138275,711.767151 186.571259,714.846375 189.494781,721.844604 
	C192.256592,728.455750 188.968246,735.502625 181.251678,738.840698 
z"/>
<path fill="#000000" opacity="1.000000" stroke="none" 
	d="
M230.982208,629.938416 
	C240.020157,629.599792 240.020142,629.599792 240.054535,638.223450 
	C240.097702,649.045654 240.107666,648.888672 228.991638,648.183838 
	C224.338974,647.888794 222.256348,646.033264 222.748581,641.358521 
	C222.887344,640.040649 222.769852,638.695618 222.767563,637.363037 
	C222.754578,629.818726 222.754333,629.818726 230.982208,629.938416 
z"/>
</svg>